<svg xmlns="http://www.w3.org/2000/svg" width="16" height="14" viewBox="0 0 16 14">
  <path id="curtir" d="M7.256,46.5c-.266,0-.668-.092-1.634-.771a24.441,24.441,0,0,1-2.011-1.613A21.188,21.188,0,0,1,.19,40.484a5.716,5.716,0,0,1-.933-3.4A5.038,5.038,0,0,1,.625,33.858,4.227,4.227,0,0,1,3.694,32.5,4.879,4.879,0,0,1,7.266,34.61c.65-.754,1.839-2.109,3.539-2.109a4.226,4.226,0,0,1,3.069,1.357,5.038,5.038,0,0,1,1.368,3.229,5.647,5.647,0,0,1-.932,3.4A21.513,21.513,0,0,1,10.9,44.122a23.873,23.873,0,0,1-2,1.611C7.931,46.41,7.526,46.5,7.256,46.5ZM3.694,33.888A3.335,3.335,0,0,0,.558,37.161a4.179,4.179,0,0,0,.72,2.56,19.627,19.627,0,0,0,3.06,3.236,12.3,12.3,0,0,0,2.92,2.152,11.956,11.956,0,0,0,2.908-2.142,19.568,19.568,0,0,0,3.055-3.246,4.188,4.188,0,0,0,.72-2.561,3.335,3.335,0,0,0-3.136-3.273c-1.149,0-2.06,1.057-2.6,1.689-.363.421-.581.675-.952.675s-.572-.253-.889-.637C5.863,35.011,4.936,33.888,3.694,33.888Z" transform="translate(0.75 -32.501)" fill="#777"/>
</svg>
