<svg id="ios_black_bar" data-name="ios black bar" xmlns="http://www.w3.org/2000/svg" width="375" height="44" viewBox="0 0 375 44">
  <rect id="Mask" width="375" height="44" fill="rgba(143,142,148,0)"/>
  <g id="Symbols" transform="translate(293 16.44)">
    <g id="Battery" transform="translate(42.5)">
      <path id="Rectangle" d="M3.589,11.5a4.057,4.057,0,0,1-2.156-.374A2.543,2.543,0,0,1,.374,10.067,4.05,4.05,0,0,1,0,7.911V3.589A4.048,4.048,0,0,1,.374,1.433,2.543,2.543,0,0,1,1.433.374,4.048,4.048,0,0,1,3.589,0H18.41a4.052,4.052,0,0,1,2.157.374,2.543,2.543,0,0,1,1.058,1.058A4.059,4.059,0,0,1,22,3.589V7.911a4.061,4.061,0,0,1-.374,2.156,2.543,2.543,0,0,1-1.058,1.058,4.061,4.061,0,0,1-2.157.374ZM23,3.69s1.5.763,1.5,2-1.5,2-1.5,2Z" transform="translate(0 0.56)" fill="rgba(0,0,0,0.36)"/>
      <rect id="Rectangle-2" data-name="Rectangle" width="18" height="7.667" rx="1.6" transform="translate(2 2.477)"/>
    </g>
    <path id="Combined_Shape" data-name="Combined Shape" d="M15.3,10.7a1.2,1.2,0,0,1-1.2-1.2V1.2A1.2,1.2,0,0,1,15.3,0h.6a1.2,1.2,0,0,1,1.2,1.2V9.5a1.2,1.2,0,0,1-1.2,1.2Zm-4.7,0A1.2,1.2,0,0,1,9.4,9.5V3.6a1.2,1.2,0,0,1,1.2-1.2h.6a1.2,1.2,0,0,1,1.2,1.2V9.5a1.2,1.2,0,0,1-1.2,1.2ZM6,10.7A1.2,1.2,0,0,1,4.8,9.5V5.9A1.2,1.2,0,0,1,6,4.7h.6A1.2,1.2,0,0,1,7.8,5.9V9.5a1.2,1.2,0,0,1-1.2,1.2Zm-4.8,0A1.2,1.2,0,0,1,0,9.5V7.9A1.2,1.2,0,0,1,1.2,6.7h.6A1.2,1.2,0,0,1,3,7.9V9.5a1.2,1.2,0,0,1-1.2,1.2Z" transform="translate(0 1)"/>
    <path id="Wi-Fi" d="M7.7,11.057a.315.315,0,0,1-.223-.094L5.462,8.932a.317.317,0,0,1,.01-.461,3.451,3.451,0,0,1,4.457,0,.312.312,0,0,1,.1.228.319.319,0,0,1-.094.233L7.924,10.964A.315.315,0,0,1,7.7,11.057ZM11.237,7.49a.309.309,0,0,1-.215-.086,4.945,4.945,0,0,0-6.641,0A.312.312,0,0,1,3.945,7.4L2.78,6.222a.325.325,0,0,1,0-.463,7.22,7.22,0,0,1,9.834,0,.325.325,0,0,1,0,.463L11.459,7.4A.31.31,0,0,1,11.237,7.49ZM13.92,4.783a.308.308,0,0,1-.217-.088,8.714,8.714,0,0,0-12.006,0,.311.311,0,0,1-.217.088.306.306,0,0,1-.22-.092L.094,3.515a.325.325,0,0,1,0-.46,10.989,10.989,0,0,1,15.205,0,.324.324,0,0,1,0,.46L14.14,4.691A.306.306,0,0,1,13.92,4.783Z" transform="translate(22.1 0.8)"/>
  </g>
  <text id="_Time" data-name="↳ Time" transform="translate(16 28)" font-size="15" font-family="SFProDisplay-Semibold, SF Pro Display" font-weight="600" letter-spacing="-0.011em"><tspan x="0" y="0">9:41</tspan></text>
</svg>
